<?xml version="1.0" standalone="no"?>
<!DOCTYPE svg PUBLIC "-//W3C//DTD SVG 20010904//EN"
 "http://www.w3.org/TR/2001/REC-SVG-20010904/DTD/svg10.dtd">
<svg version="1.0" xmlns="http://www.w3.org/2000/svg"
 width="524.000000pt" height="524.000000pt" viewBox="0 0 524.000000 524.000000"
 preserveAspectRatio="xMidYMid meet">
<metadata>
Created by potrace 1.14, written by Peter Selinger 2001-2017
</metadata>
<g transform="translate(0.000000,524.000000) scale(0.100000,-0.100000)"
fill="#000000" stroke="none">
<path d="M2281 4733 c-41 -7 -82 -15 -90 -19 -9 -4 -20 -8 -26 -9 -5 -1 -13
-3 -17 -5 -5 -1 -12 -4 -18 -5 -5 -1 -11 -3 -12 -5 -2 -1 -11 -3 -20 -5 -27
-5 -156 -73 -227 -120 -95 -63 -223 -192 -291 -295 -8 -12 -21 -29 -28 -36 -7
-8 -10 -14 -6 -14 4 0 0 -8 -9 -17 -8 -10 -17 -22 -18 -28 -1 -5 -17 -42 -35
-81 -18 -38 -35 -83 -38 -100 -2 -16 -5 -29 -6 -29 -3 0 -12 -41 -14 -62 0
-13 -3 -23 -6 -23 -3 0 -6 -44 -8 -97 -5 -149 23 -286 89 -431 16 -34 29 -65
29 -68 0 -3 5 -10 10 -17 6 -7 32 -46 59 -87 73 -110 160 -209 240 -268 20
-15 42 -33 49 -39 7 -7 34 -25 60 -40 26 -15 49 -31 50 -35 2 -4 11 -8 21 -8
9 0 25 -6 36 -14 17 -11 130 -57 138 -55 1 0 9 -2 17 -5 80 -26 288 -30 360
-6 19 6 44 13 55 14 20 4 56 18 145 58 56 26 169 100 210 138 16 15 30 26 30
24 0 -20 235 263 235 285 0 3 5 13 10 21 15 24 52 94 53 103 1 4 8 20 16 35
14 26 41 113 52 163 17 82 22 115 20 140 -1 16 2 29 7 29 4 0 5 5 1 11 -4 7
-8 39 -9 73 -3 81 -12 126 -42 215 -25 74 -104 234 -129 259 -8 7 -14 16 -14
20 0 13 -110 132 -171 187 -75 66 -99 85 -99 77 0 -4 -4 -2 -8 4 -7 10 -128
84 -138 84 -2 0 -23 8 -47 19 -76 34 -106 43 -116 36 -6 -3 -11 -1 -11 6 0 7
-3 9 -6 6 -4 -3 -14 -2 -23 3 -45 23 -209 31 -310 13z"/>
<path d="M75 3215 c8 -196 23 -336 51 -484 7 -41 12 -77 10 -79 -3 -2 0 -16 6
-31 5 -14 11 -37 13 -51 5 -35 20 -104 45 -201 12 -46 24 -93 26 -104 2 -11 8
-31 13 -45 10 -28 45 -142 46 -150 0 -3 3 -10 7 -16 4 -6 9 -21 12 -35 2 -13
13 -45 25 -71 11 -27 19 -48 17 -48 -4 0 17 -50 77 -190 6 -14 11 -28 11 -32
1 -4 7 -13 14 -20 6 -6 12 -17 12 -23 0 -18 113 -233 151 -287 11 -14 19 -31
19 -37 0 -7 7 -14 15 -17 8 -4 12 -10 9 -15 -3 -5 0 -9 5 -9 6 0 11 -5 11 -11
0 -6 11 -25 25 -43 14 -17 29 -36 33 -41 60 -83 185 -214 272 -285 30 -25 57
-48 58 -52 2 -5 7 -8 12 -8 5 0 36 -18 69 -40 33 -22 65 -40 71 -40 5 0 10 -4
10 -10 0 -5 9 -10 20 -10 11 0 20 -4 20 -8 0 -5 48 -28 108 -51 59 -24 116
-47 127 -51 18 -8 67 -20 80 -21 3 0 22 -6 42 -13 46 -16 72 -9 66 19 -5 28
-15 150 -22 281 -1 6 -20 19 -43 30 -24 10 -46 23 -50 29 -4 5 -8 6 -8 1 0 -5
-6 -3 -14 3 -7 6 -33 22 -58 35 -65 34 -212 131 -227 150 -7 9 -17 16 -22 16
-5 0 -17 8 -28 17 -58 55 -90 80 -95 75 -3 -3 -6 -1 -6 4 0 5 -39 50 -87 99
-107 109 -199 235 -265 361 -53 100 -58 123 -11 49 15 -25 31 -45 36 -45 4 0
7 -4 7 -10 0 -5 8 -19 18 -29 9 -11 42 -47 72 -82 30 -34 68 -74 84 -88 16
-14 39 -36 52 -48 13 -13 28 -23 34 -23 5 0 10 -4 10 -9 0 -5 37 -36 83 -67
45 -32 85 -63 89 -69 5 -6 8 -6 8 0 0 7 3 7 8 0 8 -11 35 -28 97 -60 22 -12
51 -28 65 -35 14 -8 27 -15 30 -15 3 -1 28 -12 55 -24 85 -38 156 -63 163 -57
7 8 8 10 16 111 3 44 8 91 11 105 8 37 16 82 20 105 4 25 13 61 19 83 3 9 7
28 10 42 2 14 9 37 15 53 6 15 8 27 6 27 -3 0 6 25 20 55 13 31 24 56 23 58 0
1 8 22 19 47 30 68 36 84 35 93 -1 4 2 7 8 7 5 0 10 5 10 10 0 6 16 36 35 66
19 30 35 59 35 64 0 6 3 10 8 10 11 0 39 54 34 68 -2 6 -10 12 -18 12 -8 0
-14 4 -14 8 0 5 -12 15 -27 22 -16 8 -39 22 -53 30 -21 14 -100 49 -210 93
-47 19 -65 25 -140 47 -63 19 -143 44 -210 66 -8 3 -17 5 -20 6 -4 0 -31 9
-95 34 -11 4 -26 8 -34 10 -7 1 -18 7 -24 13 -6 6 -16 11 -23 11 -7 0 -52 19
-101 42 -48 23 -91 41 -95 40 -5 -1 -8 3 -8 8 0 6 -4 10 -10 10 -5 0 -39 18
-75 40 -36 22 -70 40 -75 40 -6 0 -10 4 -10 10 0 5 -13 16 -29 25 -16 8 -35
20 -43 27 -7 7 -39 33 -72 58 -32 24 -60 50 -63 57 -3 7 -10 13 -15 13 -13 0
-228 217 -228 230 0 6 -4 10 -8 10 -4 0 -24 21 -44 48 -20 26 -46 58 -58 72
-12 14 -30 36 -39 50 -9 14 -22 32 -28 40 -7 8 -20 24 -28 35 -14 18 -15 10
-10 -90z"/>
<path d="M5132 2979 c-10 -9 -185 -64 -194 -61 -5 1 -8 -2 -8 -8 0 -5 -3 -9
-7 -8 -8 3 -67 -12 -172 -43 -64 -19 -115 -31 -138 -32 -7 0 -13 -3 -13 -7 0
-3 -8 -6 -17 -6 -10 -1 -29 -4 -43 -7 -14 -3 -43 -8 -65 -12 -22 -4 -49 -10
-60 -12 -11 -3 -31 -7 -45 -8 -14 -2 -26 -4 -27 -5 -2 -2 -12 -4 -23 -5 -11
-1 -21 -4 -22 -5 -2 -1 -16 -4 -33 -5 -16 -2 -43 -5 -60 -8 -27 -5 -62 -10
-145 -22 -66 -10 -218 -28 -345 -41 -66 -7 -110 -12 -167 -18 -27 -3 -69 -9
-95 -12 -27 -3 -59 -7 -73 -9 -14 -2 -43 -7 -65 -10 -22 -3 -51 -8 -65 -10
-14 -2 -40 -7 -58 -10 -78 -12 -217 -46 -297 -73 -27 -9 -52 -17 -55 -17 -15
-3 -88 -29 -105 -38 -11 -6 -22 -12 -25 -13 -3 0 -22 -8 -42 -17 -21 -10 -42
-17 -48 -17 -5 0 -10 -4 -10 -9 0 -5 -11 -12 -25 -15 -14 -4 -25 -11 -25 -17
0 -6 -4 -8 -9 -5 -5 3 -14 -1 -21 -9 -7 -8 -16 -12 -21 -9 -5 3 -9 0 -9 -5 0
-6 -5 -11 -10 -11 -6 0 -16 -4 -23 -10 -44 -36 -117 -90 -123 -90 -5 0 -173
-168 -210 -211 -8 -9 -14 -21 -14 -28 0 -7 -4 -9 -10 -6 -5 3 -10 1 -10 -5 0
-12 -51 -93 -62 -98 -5 -2 -8 -8 -8 -12 0 -5 -13 -31 -28 -57 -16 -26 -36 -68
-46 -93 -10 -25 -24 -58 -31 -75 -23 -51 -65 -187 -71 -230 -1 -11 -3 -20 -4
-20 -1 0 -3 -11 -6 -25 -2 -14 -9 -48 -14 -76 -29 -143 -33 -586 -6 -719 3
-11 5 -25 5 -32 1 -14 73 -10 129 6 17 5 32 7 32 4 0 -3 6 0 13 6 8 6 16 9 18
6 3 -2 22 0 43 6 21 6 48 13 60 15 30 7 33 8 116 33 41 13 82 25 90 26 8 2 17
4 20 5 3 1 8 2 13 1 4 0 7 3 7 8 0 8 56 25 73 22 4 0 7 4 7 10 0 5 4 8 9 4 5
-3 12 -1 15 4 3 5 17 12 30 15 13 3 46 16 73 28 26 12 50 22 53 23 3 0 35 15
72 33 37 18 71 32 74 32 4 -1 10 3 13 8 3 5 38 26 76 46 101 53 129 70 137 81
5 7 8 7 8 0 0 -6 3 -6 8 1 4 5 42 32 85 59 42 27 77 52 77 57 0 4 7 8 15 8 8
0 15 5 15 10 0 6 6 10 13 10 8 0 24 11 37 25 13 14 28 25 32 25 5 0 26 16 46
35 20 19 40 35 44 35 7 0 56 42 119 102 16 15 29 26 29 24 0 -2 14 9 31 25 42
39 48 30 10 -12 -17 -18 -31 -37 -31 -42 0 -4 -4 -5 -10 -2 -5 3 -10 1 -10 -6
0 -13 -264 -277 -319 -319 -18 -14 -48 -40 -67 -58 -19 -17 -37 -32 -39 -32
-3 0 -31 -20 -63 -45 -67 -54 -64 -52 -122 -90 -25 -16 -46 -33 -48 -37 -2 -5
-10 -8 -18 -8 -8 0 -14 -4 -14 -9 0 -5 -10 -13 -22 -17 -13 -4 -25 -10 -28
-14 -7 -10 -115 -74 -187 -111 -35 -17 -63 -35 -63 -38 0 -4 -10 -7 -21 -8
-12 -1 -30 -10 -41 -20 -11 -10 -22 -17 -24 -16 -2 1 -34 -12 -71 -29 -76 -34
-114 -50 -128 -54 -5 -1 -28 -10 -50 -20 -22 -10 -44 -19 -50 -20 -25 -5 -65
-24 -65 -30 0 -10 296 5 420 21 25 4 57 8 71 10 15 1 39 5 55 9 16 3 45 8 64
11 51 8 165 34 245 57 39 10 77 21 86 23 19 4 107 33 129 42 8 3 21 7 28 9 14
3 162 63 177 72 6 4 15 7 20 8 20 3 210 97 213 105 2 5 12 9 21 9 10 0 30 9
44 20 14 11 28 20 31 20 3 0 30 16 60 35 30 19 61 35 67 35 7 0 9 3 6 6 -4 4
7 14 23 23 74 40 299 243 425 383 54 60 151 181 218 273 37 50 71 95 77 102 5
7 10 17 10 23 0 5 5 10 10 10 6 0 10 6 10 13 0 7 8 22 19 33 10 11 22 30 25
42 4 12 11 22 14 22 4 0 18 20 32 45 14 25 28 45 33 45 4 0 6 4 3 9 -3 5 2 19
12 32 10 13 36 58 58 99 21 41 42 77 45 80 6 6 19 37 18 46 0 4 3 10 8 13 4 3
22 35 38 71 17 36 33 68 38 71 4 3 9 16 12 28 2 13 9 28 14 35 5 6 10 16 12
21 9 38 12 45 22 45 6 0 7 3 4 7 -4 3 0 17 8 30 9 13 13 23 10 23 -3 0 0 10 7
23 7 12 13 24 13 27 10 39 19 60 28 60 6 0 8 3 4 6 -5 5 11 58 51 164 12 33
52 170 58 197 3 17 0 21 -16 20 -11 -1 -24 -4 -28 -8z"/>
</g>
</svg>
